<mxfile host="65bd71144e">
    <diagram id="H1WUpH-YH3oahjhv1KEx" name="Page-1">
        <mxGraphModel dx="686" dy="633" grid="1" gridSize="10" guides="1" tooltips="1" connect="1" arrows="1" fold="1" page="1" pageScale="1" pageWidth="850" pageHeight="1100" math="0" shadow="0">
            <root>
                <mxCell id="0"/>
                <mxCell id="1" parent="0"/>
                <mxCell id="2" value="" style="points=[[0.145,0.145,0],[0.5,0,0],[0.855,0.145,0],[1,0.5,0],[0.855,0.855,0],[0.5,1,0],[0.145,0.855,0],[0,0.5,0]];shape=mxgraph.bpmn.event;html=1;verticalLabelPosition=bottom;labelBackgroundColor=#ffffff;verticalAlign=top;align=center;perimeter=ellipsePerimeter;outlineConnect=0;aspect=fixed;outline=standard;symbol=multiple;" parent="1" vertex="1">
                    <mxGeometry x="70" y="180" width="50" height="50" as="geometry"/>
                </mxCell>
                <mxCell id="3" value="Verfier le montant du prêt" style="rounded=1;whiteSpace=wrap;html=1;container=1;collapsible=0;absoluteArcSize=1;arcSize=20;childLayout=stackLayout;horizontal=1;horizontalStack=0;resizeParent=1;resizeParentMax=0;resizeLast=0;" parent="1" vertex="1">
                    <mxGeometry x="180" y="250" width="120" height="100" as="geometry"/>
                </mxCell>
                <mxCell id="4" value="" style="whiteSpace=wrap;connectable=0;html=1;shape=mxgraph.basic.rect;size=10;rectStyle=rounded;bottomRightStyle=square;bottomLeftStyle=square;part=1;" parent="3" vertex="1">
                    <mxGeometry width="120" height="20" as="geometry"/>
                </mxCell>
                <mxCell id="5" value="Scanner le bon de livraison" style="shape=mxgraph.bpmn.task;part=1;taskMarker=abstract;connectable=0;whiteSpace=wrap;html=1;" parent="3" vertex="1">
                    <mxGeometry y="20" width="120" height="60" as="geometry"/>
                </mxCell>
                <mxCell id="7" value="" style="edgeStyle=elbowEdgeStyle;fontSize=12;html=1;endArrow=blockThin;endFill=1;" parent="3" source="2" edge="1">
                    <mxGeometry width="160" relative="1" as="geometry">
                        <mxPoint x="-90" y="55" as="sourcePoint"/>
                        <mxPoint y="55" as="targetPoint"/>
                        <Array as="points"/>
                    </mxGeometry>
                </mxCell>
                <mxCell id="6" value="" style="whiteSpace=wrap;connectable=0;html=1;shape=mxgraph.basic.rect;size=10;rectStyle=rounded;topRightStyle=square;topLeftStyle=square;fillColor=#C0C0C0;part=1;" parent="3" vertex="1">
                    <mxGeometry y="80" width="120" height="20" as="geometry"/>
                </mxCell>
                <mxCell id="8" value="Verfier le montant du prêt" style="rounded=1;whiteSpace=wrap;html=1;container=1;collapsible=0;absoluteArcSize=1;arcSize=20;childLayout=stackLayout;horizontal=1;horizontalStack=0;resizeParent=1;resizeParentMax=0;resizeLast=0;" parent="1" vertex="1">
                    <mxGeometry x="200" y="80" width="120" height="100" as="geometry"/>
                </mxCell>
                <mxCell id="9" value="" style="whiteSpace=wrap;connectable=0;html=1;shape=mxgraph.basic.rect;size=10;rectStyle=rounded;bottomRightStyle=square;bottomLeftStyle=square;part=1;" parent="8" vertex="1">
                    <mxGeometry width="120" height="20" as="geometry"/>
                </mxCell>
                <mxCell id="10" value="Decharger les cartons" style="shape=mxgraph.bpmn.task;part=1;taskMarker=abstract;connectable=0;whiteSpace=wrap;html=1;" parent="8" vertex="1">
                    <mxGeometry y="20" width="120" height="60" as="geometry"/>
                </mxCell>
                <mxCell id="11" value="" style="edgeStyle=elbowEdgeStyle;fontSize=12;html=1;endArrow=blockThin;endFill=1;" parent="8" source="2" edge="1">
                    <mxGeometry width="160" relative="1" as="geometry">
                        <mxPoint x="-90" y="55" as="sourcePoint"/>
                        <mxPoint y="55" as="targetPoint"/>
                        <Array as="points"/>
                    </mxGeometry>
                </mxCell>
                <mxCell id="12" value="" style="whiteSpace=wrap;connectable=0;html=1;shape=mxgraph.basic.rect;size=10;rectStyle=rounded;topRightStyle=square;topLeftStyle=square;fillColor=#C0C0C0;part=1;" parent="8" vertex="1">
                    <mxGeometry y="80" width="120" height="20" as="geometry"/>
                </mxCell>
            </root>
        </mxGraphModel>
    </diagram>
</mxfile>